<svg viewBox="0 650 700 700" xmlns="http://www.w3.org/2000/svg">
    <!-- <path fill="green" d="
    M45.8 308.8179v91.4c0.2 2.8 2.6 4.8 5 5h30.4c2.8 0.2 4.6 2.4 5 4.2l1.6 5.2l1 3q5.2 15.6 13.8 31c0.6 2.2 0.6 4.6 -2.8 7.6l-19 18.8c-2 1.8 -3.8 5.8 1 9.6l63.2 63.2c2.8 2.2 6.2 1.4 8.2 -1.2l20.4 -20.4c2 -1.8 5.2 -1.4 6.4 -0.6q17.6 10.2 38.8 16.2c1.4 0.4 3.6 2.2 3.6 4.8v29c0 3.4 2 6.2 5.4 6.4h91c3.4 0.2 5.6 -3 5.6 -5.6v-29.8c0.2 -2 1.4 -4.4 5.4 -5.4q19.2 -5.6 37 -15.6c1.8 -1 4.2 -1 6 0.4q11 10.9 22 21.8c1.6 1.4 5.6 2.2 8.2 -1.2l63.2 -63c2.2 -2.2 2.6 -5.4 0.4 -8l-20.6 -20.4c-2.6 -3 -2.8 -5.2 -0.2 -9.6q9 -16.4 15 -36.4c0.4 -1.6 2.4 -4 5 -3.8h29c4 0 6.2 -2.6 6.4 -5.8v-90.4c0 -2.8 -2.4 -5.8 -5.8 -5.8H465c-1.8 -0.2 -4 -2.2 -4.4 -4.2q-5.8 -19.4 -16.2 -38.8c-0.8 -1.4 -0.6 -3.8 0.6 -5.6l21.4 -21.4c2.4 -2.4 2.2 -6.4 -1 -8.8l-63.6 -63.4c-1.6 -1.6 -5 -2.2 -7.4 0.4l-21.4 21.2c-1.8 1.4 -4.2 1.4 -6.2 0.4q-19 -10.4 -38.8 -16c-3 -1.2 -3.8 -3.8 -3.6 -6.6v-28c0 -2.4 -1.4 -5.2 -5 -5.6h-91.6c-2.2 0.2 -4.8 1.6 -5.2 4.6v31c-0.2 1.6 -1.4 4 -4 4.8q-20.6 5.8 -38.6 15.8q-3.6 1.8 -6.4 -0.6l-21.8 -21.6c-1.8 -1.4 -4.2 -1.8 -6.6 0l-65.2 65c-2 2.8 -1.2 6 0.8 7.8l21 21c0.8 1 1.8 3.6 0.6 5.8q-10.6 18.6 -16.6 39.8c-0.6 1.4 -2.6 3.6 -6 3.2H51.4c-2.6 0 -5.2 1.8 -5.6 5.2M210.6 268.6179c-66.4338 48.1125 -55.8715 150.0995 19.012 183.5766c34.7536 15.5368 75.156 11.3525 105.988 -10.9766c66.4338 -48.1125 55.8715 -150.0995 -19.012 -183.5766C281.8344 242.1045 241.432 246.2888 210.6 268.6179    "/>

    <circle id="circle" cx="275" cy="355" r="125" fill="white"/>    

    <path fill="darkorange" d="
    M459.65 531.6701v45.7c0.1 1.4 1.3 2.4 2.5 2.5h15.2c1.4 0.1 2.3 1.2 2.5 2.1l0.8 2.6l0.5 1.5q2.6 7.8 6.9 15.5c0.3 1.1 0.3 2.3 -1.4 3.8l-9.5 9.4c-1 0.9 -1.9 2.9 0.5 4.8l31.6 31.6c1.4 1.1 3.1 0.7 4.1 -0.6l10.2 -10.2c1 -0.9 2.6 -0.7 3.2 -0.3q8.8 5.1 19.4 8.1c0.7 0.2 1.8 1.1 1.8 2.4v14.5c0 1.7 1 3.1 2.7 3.2h45.5c1.7 0.1 2.8 -1.5 2.8 -2.8v-14.9c0.1 -1 0.7 -2.2 2.7 -2.7q9.6 -2.8 18.5 -7.8c0.9 -0.5 2.1 -0.5 3 0.2q5.5 5.45 11 10.9c0.8 0.7 2.8 1.1 4.1 -0.6l31.6 -31.5c1.1 -1.1 1.3 -2.7 0.2 -4l-10.3 -10.2c-1.3 -1.5 -1.4 -2.6 -0.1 -4.8q4.5 -8.2 7.5 -18.2c0.2 -0.8 1.2 -2 2.5 -1.9h14.5c2 0 3.1 -1.3 3.2 -2.9v-45.2c0 -1.4 -1.2 -2.9 -2.9 -2.9h-15.2c-0.9 -0.1 -2 -1.1 -2.2 -2.1q-2.9 -9.7 -8.1 -19.4c-0.4 -0.7 -0.3 -1.9 0.3 -2.8l10.7 -10.7c1.2 -1.2 1.1 -3.2 -0.5 -4.4l-31.8 -31.7c-0.8 -0.8 -2.5 -1.1 -3.7 0.2l-10.7 10.6c-0.9 0.7 -2.1 0.7 -3.1 0.2q-9.5 -5.2 -19.4 -8c-1.5 -0.6 -1.9 -1.9 -1.8 -3.3v-14c0 -1.2 -0.7 -2.6 -2.5 -2.8h-45.8c-1.1 0.1 -2.4 0.8 -2.6 2.3v15.5c-0.1 0.8 -0.7 2 -2 2.4q-10.3 2.9 -19.3 7.9q-1.8 0.9 -3.2 -0.3l-10.9 -10.8c-0.9 -0.7 -2.1 -0.9 -3.3 0l-32.6 32.5c-1 1.4 -0.6 3 0.4 3.9l10.5 10.5c0.4 0.5 0.9 1.8 0.3 2.9q-5.3 9.3 -8.3 19.9c-0.3 0.7 -1.3 1.8 -3 1.6h-14.2c-1.3 0 -2.6 0.9 -2.8 2.6M542.05 511.5701c-33.2169 24.0563 -27.9358 75.0498 9.506 91.7883c17.3768 7.7684 37.578 5.6763 52.994 -5.4883c33.2169 -24.0563 27.9358 -75.0498 -9.506 -91.7883c-17.3768 -7.7684 -37.578 -5.6763 -52.994 5.4883    
    "/>
    <circle id="circle" cx="572" cy="555" r="60" fill="white"/>     -->

    <path fill="MediumBlue" d="
    M217 624.8285c-60 55 -75 125 -55 200C4.1909 974.9396 68.0603 1239.5923 276.9648 1301.2034c96.9529 28.5938 201.7958 3.2918 275.0352 -66.375C709.8091 1084.7174 645.9397 820.0647 437.0352 758.4535C340.0823 729.8597 235.2394 755.1617 162 824.8285l60 -40c-20 -35 -40 -95 -5 -160M272 759.8285    
    "/>
    <path fill="MediumBlue" d="
    M272.4704 770.8c-19.2 -24 -4.8 -110.4 91.2 -110.4c72 4.8 105.6 72 81.6 115.2
    "/>
    <path fill="white" d="
    M262.1778 829.98c-128.32 115.36 46.08 411.36 76.96 434.4c-10.24 -35.84 -51.36 -130.88 -40.16 -144.48c8.48 -11.2 131.68 152.16 156.48 153.12c-1.76 -20.64 -148.8 -222.4 -87.2 -336.16c28.96 20.48 59.84 76.16 70.88 128.32c29.92 -32.16 -21.44 -231.84 -176.96 -235.2    
    "/>
    
    <path fill="white" d="
    M216.249 627.425c-62.7 80.85 -33.9 189 2.25 234.15c7.2 -14.8 14.4 -29.6 21.6 -44.4c-29.55 -51.6 -64.95 -112.95 -23.85 -189.75
    "/>

    <path fill="white" d="
    M279.4313 753.4938c0.7506 57.966 63.9697 93.3822 113.7944 63.7492c23.1237 -13.7527 37.154 -38.7971 36.8056 -65.6992c-3.0022 -57.966 -67.6286 -90.9447 -116.3275 -59.3617c-22.6012 14.6577 -35.6658 40.2596 -34.2725 67.1617    
    "/>
</svg>

